<svg xmlns="http://www.w3.org/2000/svg" viewBox="0 0 126 68" role="img" aria-labelledby="yccc-logo-title">
  <title id="yccc-logo-title">Yorkshire County Cricket Club</title>
  <g transform="translate(63, 34) translate(-32.8, -34)">
    <path
      fill="#f8fafc"
      stroke="#f8fafc"
      stroke-width="0.58"
      d="M32.8,41.5		c0,0-0.1,1.6-7,1.6c0,0-6.9,0.8-9.9-2.1c0,0-2.6,0-5,0.3c0,0-6.2,1-8.4-8.2c0,0-0.5-1.6,2.3-2.2c0,0-4.1-4-3.8-7.6		c0,0-0.3-1.9,3.4-2.1c0,0-2.6-2.4-1-7c0,0,2.1-1.9,4.5,0c0,0-0.8-4,3.9-4.5c0,0,1.4,0.3,1.7,0.7c0,0-0.1-2.8,3.6-2.9		c0,0,1.8,0.3,2.3,0.8c0,0,0.8-1.9,3.5-2c0,0,1.4,0,2.1,1.3c0,0,1.1-3.8,6.3-3.6c0,0,6.3-0.9,6.6,9.8c0,0,0.5,3.3-1.3,7		c0,0,0.4,0.9,1.1-0.6c0,0,0.8-1.3,1-3c0,0,0.9-4.5,3-6.7c0,0,1.4-1.6,2-3.2c0,0,0.6-1.5,2-0.4c0,0,2.2,1.7,2.4,3.3		c0,0,0.8-2.6,1.6-4.2c0,0,1.5-2.8,5.5-0.7c0,0,1.8,0.5,1.8,3.4c0,0-0.1,1.3-0.4,1.8c0,0,0.3,0.3,0.9-0.4c0,0,2-1.9,3.5-2		c0,0,3.5,1,3.2,4.2c0,0-0.1,1.6-1.3,2.9c0,0,0.8,1.9-0.4,3.6c0,0,0.3,0.3,0.8-0.2c0,0,2.5-1.7,4.6-1.7c0,0,4.9-0.1,5.1,5.4		c0,0,0.3,2.4-2.5,3.6c0,0-7.1,3.4-11.1,8.5c0,0-4.8,8.1-8.9,8.1c0,0-6.1,0.2-9.2-0.3l-3-0.3c0,0-0.2,4-0.8,5.2h1.5		c0,0,0,1.9-1.5,3.4c0,0-1.8,2.5-2.3,4.2c0,0,3.2-0.1,4.1-0.7c0,0-10.3,8.5-10.5,9.8c0,0-1.9,0.5-2.7-0.9c0,0-1.6-0.2-3.2,0		c0,0-1.8-0.4-2.1-1.7c0,0-0.5-0.6,0.6-0.8c0,0,6.7-3.1,8.3-7.7l-1.1-2.5c0,0-0.5-2.3,0-3.1l2.1,2c0,0,0.8,1.2,0.8-0.8l0.1-4.7		l1.3,1C33,44.7,33.3,42.4,32.8,41.5"
    />
    <path
      fill="#FFFFFF"
      d="M5.4,32c0,0-2-0.3-1.9,1.5c0,0,1.8,4.2,3.9,5.5		c0,0,1.3,1.2,2.7,1c0,0,4.5-0.6,6.4-0.1c0,0,1.6,1.8,7.1,1.9c0,0,5.3,0.3,7.1-0.3c0,0,1.9-0.4,1.9-2.2c0,0-0.1-1.9-4.2-2.8		c0,0-2.9-0.6-3.7-1c0,0-1.1-1-2.7-0.4c0,0-0.7,0.6-3.5,0.6c0,0-8.4-1.1-10.7-2.6C8,33.3,6.8,31.9,5.4,32"
    />
    <path
      fill="#FFFFFF"
      d="M2,23.6c0,0,0.2-1.6,2.3-1.5c0,0,0.9,0,1.9,1.2		c0,0,5.5,5.5,11.5,7.2c0,0,5.2,1.9,7.8,1.9l2.1,0.2l3,3c0,0,0.8,0.9-0.4,0.8c0,0-4.4-0.8-6-2.1c0,0-0.5-0.3-2.4,0.1		c0,0-1.6,0.4-3.3,0.4C18.5,34.8,4,34.5,2,23.6"
    />
    <path
      fill="#FFFFFF"
      d="M3.9,17c0,0-0.6-2.6,1.7-2.5c0,0,2-0.1,3.5,2.2		c0,0,6.1,8.9,13,11.2c0,0,3,1,4.8,1c0,0-0.7,1.7-0.6,2.4C26.2,31.2,7.8,29.5,3.9,17"
    />
    <path
      fill="#FFFFFF"
      d="M9,13.4c0,0,0.4-2.6,2.6-2.6c0,0,1.4,0.1,1.8,1.7		c0,0,3.9,10.8,12.7,12.9l0.7,0.1c0,0,0.9,2.2,1.3,2.5c0,0-1.4,0.4-3.6-0.2C24.5,27.7,12.5,23.4,9,13.4"
    />
    <path
      fill="#FFFFFF"
      d="M14.2,11.2c0,0,0.6-2.5,2.9-2.5		c0,0,1.7,0.1,1.8,1.3c0,0,1.5,10.2,7.4,12.3l0.1,1.8C26.4,24.1,18.7,24.2,14.2,11.2"
    />
    <path
      fill="#FFFFFF"
      d="M19.9,10c0,0,0.1-2,3-2.5c0,0,1.6,0.1,1.6,1.8		c0,0,0.4,8.5,2.3,11.7c0,0-1.3,0.6-2.8-1.5C24,19.5,21.3,16.3,19.9,10"
    />
    <path
      fill="#FFFFFF"
      d="M29.5,20.9c0,0-0.9,0.8-1.6,0.3		c0,0-2.3-4.2-2.4-9.9c0,0-0.4-6.3,5.5-6.3c0,0,5.6-1,5.9,9c0,0,0.1,4.7-1.2,6.5c0,0-0.1-0.3-0.8-0.4c0,0,0.7-11.1-3.9-11.1		C31,9.1,26.2,8.7,29.5,20.9"
    />
    <path
      fill="#FFFFFF"
      d="M34.1,19.8c0,0-2.2,0.3-3.2,1c0,0-0.5,0.3-0.7-0.4		c0,0-2.8-9.9,0.7-10.2C30.9,10.1,33.8,9.3,34.1,19.8"
    />
    <path
      fill="#E03B2A"
      d="M27.2,24.7c0,0-0.4-2.1,0.2-2.6c0,0,2,0.1,3.3-0.6		c0,0,2.2-1.3,4.4-0.5c0,0,2.3,1.4,2.3,2.6c0,0,0.5,1.3-1.1,1.7c0,0-5.7,2.4-7.3,1.9C29,27.4,27.9,25.2,27.2,24.7"
    />
    <path
      fill="#FFFFFF"
      d="M27.4,31.1c0,0,0-1.6,1-2.1c0,0,0.9-0.9,1.4-0.8		c0,0,6.1-0.5,7.8-2.6c0,0,1.6-1,2.5,0.3c0,0-0.4,1,1.1,1.5c0,0,3.1,0.9,3.7,1.5c0,0,1.9,2,1.9,3.2c0,0-1.2,2.7-9.6,4		c0,0-0.4,0.2-0.8-0.6c0,0,0.1-1.2-2.6-1.6c0,0-0.7,0.2-1.1-0.6c0,0-1.4-1-2.1,0.6C30.6,33.9,29.1,33.4,27.4,31.1"
    />
    <path
      fill="#FFFFFF"
      d="M37.4,21.8c0,0,1.1,1.1,0.8,2.4		c0,0,1.8,0.6,2.5-0.3c0,0,5.1-5.4,6.2-12c0,0,0.4-3.1-2-4c0,0-1.3,2.2-1.6,2.4c0,0-2,1.9-3.3,5.9C39.9,16.3,39.6,20.9,37.4,21.8"
    />
    <path
      fill="#FFFFFF"
      d="M41.4,24.5c0,0-1.3,1-0.1,1.7c0,0,2.1,0.6,2.7,1.1		c0,0,1,0.7,1.6-0.5c0,0,3.7-5.2,4.4-6.3c0,0,4.2-5.6,5.1-9c0,0,2.5-5.8-2.6-5.6c0,0-1.3-0.5-2.1,1.4C50.4,7.4,46.9,19.1,41.4,24.5"
    />
    <path
      fill="#FFFFFF"
      d="M45.6,28c0,0,1.8,2.4,2,3.1c0,0,2.4-3.4,4.6-4.2		c0,0,1.6-0.7,2.3-1.5c0,0,1.9-1.7,2.2-2c0,0,3.3-1.8,4.1-3.7c0,0,0.8-1.4,1.1-1.9c0,0,0.4-1.7,0-2.3c0,0,1.5-2.4,1.1-3.4		c0,0-0.4-2.4-2.5-2.6c0,0-2.9,1.3-4.6,3.8l-6.8,10.4L45.6,28"
    />
    <path
      fill="#FFFFFF"
      d="M37.6,36.7c0,0,0.3,3.5,0.8,4c0,0,4.1,1.1,9.9,0.9		c0,0,3.8,0.2,5.4-1.5c0,0,4.4-5.9,5.4-6.8c0,0,5-5.2,7.8-6.7c0,0,3.3-1.5,3.9-2.1c0,0,1.2-0.6,1.2-2.4c0,0-0.2-4-4.2-4		c0,0-2.7,0.2-5.7,2.6c0,0-6.5,4.9-7.6,6.7c0,0-2.7-0.1-6.1,4.5C48.3,32,45.7,36.3,37.6,36.7"
    />
    <path
      fill="#00907E"
      d="M22.4,60.9c0,0-0.4,1,0.7,1.1c0,0,2.6-0.6,3.6,0.2		c0,0,1.1,1.4,2.5-0.2c0,0,4.2-4.4,6.4-5.9l-1.9-0.1c0,0,1.1-2.3,1.3-3.7c0,0,2.3-2.5,2.7-3.8l-1.3-0.1c0,0,0.8-3.5,0.8-6.5		c0,0,0.2-4.6-2-6.6c0,0-0.8-0.5-1.8-0.5c0,0-1.1-0.1-1.3-0.8c0,0-1.2,0-0.6,1.4c0,0,2.3,2.7,2.5,6.7c0,0,0.4,3.3-0.2,4.5l-1.3-1.2		c0,0,0.3,3.7-0.3,4.5c0,0-0.1,1.7-1.5,0.6c0,0-0.8-0.5-1.1-1.3c0,0,0.2,2.4,1.3,3.4c0,0-1.1,3.3-3.9,5.1		C27.1,57.9,24.5,60.7,22.4,60.9"
    />
  </g>
</svg>
